<?xml version="1.0" encoding="UTF-8"?>
<svg width="24px" height="24px" viewBox="0 0 24 24" version="1.1" xmlns="http://www.w3.org/2000/svg" xmlns:xlink="http://www.w3.org/1999/xlink">
    <!-- Generator: Sketch 54.1 (76490) - https://sketchapp.com -->
    <title>Fill 1</title>
    <desc>Created with Sketch.</desc>
    <g id="Карточка-объекта" stroke="none" stroke-width="1" fill="none" fill-rule="evenodd">
        <g id="Detail-Page" transform="translate(-110.000000, -787.000000)" fill="#AAAAAA">
            <path d="M130.5,805 L129.5,805 C128.673,805 128,805.673 128,806.5 L128,807.5 L116,807.5 L116,806.5 C116,805.673 115.327,805 114.5,805 L113.5,805 L113.5,793 L114.5,793 C115.327,793 116,792.327 116,791.5 L116,790.5 L128,790.5 L128,791.5 C128,792.327 128.673,793 129.5,793 L130.5,793 L130.5,805 Z M133,806.5 L133,809.5 C133,809.775 132.775,810 132.5,810 L129.5,810 C129.225,810 129,809.775 129,809.5 L129,806.5 C129,806.225 129.225,806 129.5,806 L132.5,806 C132.775,806 133,806.225 133,806.5 L133,806.5 Z M115,809.5 C115,809.775 114.776,810 114.5,810 L111.5,810 C111.224,810 111,809.775 111,809.5 L111,806.5 C111,806.225 111.224,806 111.5,806 L114.5,806 C114.776,806 115,806.225 115,806.5 L115,809.5 Z M111,791.5 L111,788.5 C111,788.224 111.224,788 111.5,788 L114.5,788 C114.776,788 115,788.224 115,788.5 L115,791.5 C115,791.776 114.776,792 114.5,792 L111.5,792 C111.224,792 111,791.776 111,791.5 L111,791.5 Z M129,788.5 C129,788.224 129.225,788 129.5,788 L132.5,788 C132.775,788 133,788.224 133,788.5 L133,791.5 C133,791.776 132.775,792 132.5,792 L129.5,792 C129.225,792 129,791.776 129,791.5 L129,788.5 Z M132.5,793 C133.327,793 134,792.327 134,791.5 L134,788.5 C134,787.673 133.327,787 132.5,787 L129.5,787 C128.673,787 128,787.673 128,788.5 L128,789.5 L116,789.5 L116,788.5 C116,787.673 115.327,787 114.5,787 L111.5,787 C110.673,787 110,787.673 110,788.5 L110,791.5 C110,792.327 110.673,793 111.5,793 L112.5,793 L112.5,805 L111.5,805 C110.673,805 110,805.673 110,806.5 L110,809.5 C110,810.327 110.673,811 111.5,811 L114.5,811 C115.327,811 116,810.327 116,809.5 L116,808.5 L128,808.5 L128,809.5 C128,810.327 128.673,811 129.5,811 L132.5,811 C133.327,811 134,810.327 134,809.5 L134,806.5 C134,805.673 133.327,805 132.5,805 L131.5,805 L131.5,793 L132.5,793 Z" id="Fill-1"></path>
        </g>
    </g>
</svg>